<svg xmlns="http://www.w3.org/2000/svg" width="45" height="45" fill="none" viewBox="0 0 45 45">
    <path fill="#000" d="M7.347 43.194l.894-.447-.894.447zm30.306 0l.895.447-.895-.447zM2.11 17.5h40.78v-2H2.11v2zm40.39-.39v1.316h2V17.11h-2zM37.158 42.5H7.842v2h29.316v-2zM2.5 18.426V17.11h-2v1.316h2zm5.741 24.32C4.466 35.197 2.5 26.869 2.5 18.427h-2c0 8.753 2.038 17.386 5.952 25.215l1.79-.894zm-.399-.246c.17 0 .324.096.4.247l-1.79.894c.264.526.802.859 1.39.859v-2zm28.917.247c.075-.151.23-.247.399-.247v2c.588 0 1.126-.333 1.39-.859l-1.79-.894zM42.5 18.426c0 8.443-1.966 16.77-5.741 24.32l1.788.895C42.462 35.812 44.5 27.18 44.5 18.426h-2zm.39-.926c-.215 0-.39-.175-.39-.39h2c0-.89-.72-1.61-1.61-1.61v2zm-40.78-2c-.89 0-1.61.72-1.61 1.61h2c0 .215-.175.39-.39.39v-2zm9.248 1.515l9-15-1.716-1.03-9 15 1.716 1.03zm13.284-15l9 15 1.715-1.03-9-15-1.715 1.03z"/>
</svg>
